<svg xmlns="http://www.w3.org/2000/svg" viewBox="0 0 64 64" id="lemonade">
  <path fill="#f8f4e8" d="m47 13-3.706 46.319A3.999 3.999 0 0 1 39.307 63H24.693a4 4 0 0 1-3.987-3.681L17 13h30z"></path>
  <path fill="#ffc135" d="M44.59 18 41.3 59.16A2.01 2.01 0 0 1 39.31 61H24.69a2.01 2.01 0 0 1-1.99-1.84L19.41 18h25.18z"></path>
  <path fill="#ff9f14" d="M44.59 18 41.3 59.16A2.01 2.01 0 0 1 39.31 61H24.69a2.01 2.01 0 0 1-1.99-1.84L22.61 58h13.7c1.03 0 1.91-.81 1.99-1.84L41.35 18h3.24z"></path>
  <circle cx="48" cy="13" r="10" fill="#ff9f14"></circle>
  <circle cx="48" cy="13" r="7" fill="#ffc135"></circle>
  <path fill="#ffc135" d="m48 13-1.09 1.09L47 13z"></path>
  <path fill="#ffe75a" d="M48 13v7c-.53 0-1.05-.06-1.55-.17L46.6 18l.31-3.91L48 13z"></path>
  <path fill="#ff960b" d="M55 13h3c0 5.52-4.48 10-10 10-.61 0-1.21-.06-1.79-.16l.24-3.01c.5.11 1.02.17 1.55.17 1.93 0 3.68-.78 4.95-2.05A6.976 6.976 0 0 0 55 13z"></path>
  <path fill="#ffc135" d="M52.95 8.05A6.976 6.976 0 0 1 55 13h-7l4.95-4.95z"></path>
  <path fill="#ffe75a" d="M48 13h7c0 1.93-.78 3.68-2.05 4.95L48 13zm4.95-4.95L48 13V6c1.93 0 3.68.78 4.95 2.05z"></path>
  <path fill="#ffc135" d="m48 13 4.95 4.95A6.976 6.976 0 0 1 48 20v-7zm0-7v7l-4.95-4.95A6.976 6.976 0 0 1 48 6z"></path>
  <path fill="#ffe75a" d="M48 13h-7c0-1.93.78-3.68 2.05-4.95L48 13z"></path>
  <path fill="#ffda86" d="m47 13-.09 1.09-3.86 3.86A6.976 6.976 0 0 1 41 13h6z"></path>
  <path fill="#ffec7b" d="M46.91 14.09 46.6 18h-3.49a.265.265 0 0 1-.06-.05l3.86-3.86zM46.6 18l-.15 1.83A6.917 6.917 0 0 1 43.11 18h3.49z"></path>
  <path fill="#ffb243" d="m46.45 19.83-.24 3.01c-2.94-.53-5.43-2.35-6.87-4.84h3.77c.91.9 2.06 1.54 3.34 1.83z"></path>
  <path fill="#ffcd5d" d="M43.11 18h-3.77A9.966 9.966 0 0 1 38 13h3c0 1.93.78 3.68 2.05 4.95.02.02.04.04.06.05z"></path>
  <path fill="#bdd3ff" d="m41.5 40.5-2 4-3-3 2-4z"></path>
  <circle cx="39" cy="52" r="2" fill="#5991ff"></circle>
  <path fill="#5991ff" d="m39.5 44.5-3 2-5-5h5z"></path>
  <path fill="#f8f4e8" d="M39.34 18H24.13l-.87-5H38c0 1.82.49 3.53 1.34 5z"></path>
  <circle cx="37" cy="31" r="2" fill="#5991ff"></circle>
  <path fill="#f8f4e8" d="m38.5 37.5-2 4h-5l3-6z"></path>
  <path fill="#bdd3ff" d="m32.18 50.61 1.42 4.24h-4.25l-1.41-4.24z"></path>
  <path fill="#5991ff" d="m33.6 54.85-.71 3.54h-7.07l3.53-3.54z"></path>
  <path fill="#f8f4e8" d="m27.94 50.61 1.41 4.24-3.53 3.54-2.12-6.36zM23.26 13l.87 5H17.4l-.4-5z"></path>
  <path fill="#ffe75a" d="M21.464 31.795c.05.484.206 1.831.783 2.014.307.097.769-.213.866-.502.049-.147.03-.307.004-.459-.143-.829-.425-1.692-.754-2.466-.09-.21-.427-.793-.7-.449a.633.633 0 0 0-.101.235c-.128.49-.156 1.061-.098 1.627zm12.987-8.824c.054.527.225 1.992.852 2.19.334.106.837-.231.941-.546.053-.16.033-.334.004-.499-.156-.902-.462-1.84-.821-2.682-.097-.229-.465-.863-.761-.489a.684.684 0 0 0-.11.255c-.138.534-.168 1.156-.105 1.771z"></path>
  <circle cx="38" cy="21" r="1" fill="#ffe75a"></circle>
  <circle cx="22" cy="22" r="1" fill="#ffe75a"></circle>
  <circle cx="25" cy="47" r="1" fill="#ffe75a"></circle>
  <circle cx="22" cy="36" r="1" fill="#ffe75a"></circle>
  <circle cx="41" cy="36" r="1" fill="#ffe75a"></circle>
  <circle cx="41" cy="27" r="1" fill="#ffe75a"></circle>
  <circle cx="23" cy="41" r="1" fill="#ffe75a"></circle>
  <path fill="#f91525" d="M28.999 47a1 1 0 0 1-.984-.829L20.449 2.673A1.007 1.007 0 0 0 19.503 2H12a1 1 0 1 1 0-2h7.503c1.321 0 2.505.886 2.878 2.153a.997.997 0 0 1 .026.111l7.578 43.564A1 1 0 0 1 28.999 47z"></path>
  <path fill="#5991ff" d="m32 23 2 3-5 5v-5z"></path>
  <path fill="#f8f4e8" d="m32 23-3 3-4-2 .15-.15L28 21z"></path>
  <path fill="#bdd3ff" d="M29 26v5l-2.86-1.43L23 28l2-4z"></path>
</svg>
