<svg xmlns="http://www.w3.org/2000/svg" viewBox="0 0 398.605 398.605" id="spicy-green-papaya-salad">
  <ellipse cx="199.303" cy="199.303" fill="#e6d8b1" rx="144.991" ry="214.304" transform="rotate(30 199.31 199.29)"></ellipse>
  <path fill="#fbf9f3" d="M145.128 386.925c-17.32 0-33.18-4.086-47.137-12.146-30.077-17.364-48.4-51.577-51.594-96.337-3.314-46.444 9.988-98.222 37.456-145.795 21.137-36.61 48.825-67.44 80.071-89.159 29.943-20.809 60.91-31.808 89.554-31.808 17.318 0 33.177 4.086 47.136 12.145 30.079 17.366 48.402 51.579 51.595 96.337 3.314 46.445-9.988 98.223-37.456 145.795-21.137 36.611-48.825 67.441-80.071 89.158-29.943 20.811-60.91 31.81-89.554 31.81zM253.478 14.68c-28.028 0-58.403 10.813-87.841 31.272-30.887 21.467-58.27 51.965-79.187 88.195-27.171 47.06-40.333 98.229-37.062 144.083 3.121 43.734 20.914 77.101 50.102 93.952 13.495 7.792 28.85 11.743 45.637 11.743 28.029 0 58.404-10.813 87.841-31.271 30.887-21.467 58.27-51.964 79.187-88.195 27.172-47.059 40.333-98.228 37.062-144.082-3.12-43.734-20.913-77.101-50.103-93.954-13.496-7.792-28.851-11.743-45.636-11.743z"></path>
  <path fill="#f5efe0" d="M145.128 354.671c-11.584 0-22.018-2.632-31.01-7.824-27.682-15.982-34.154-51.155-35.549-70.699-2.819-39.504 9.288-85.93 33.216-127.373 18.779-32.527 43.175-59.776 70.549-78.8 24.161-16.792 49.427-26.04 71.144-26.04 11.584 0 22.018 2.633 31.009 7.824 27.682 15.982 34.155 51.156 35.55 70.7 2.818 39.504-9.289 85.93-33.216 127.373-18.779 32.527-43.175 59.775-70.548 78.8-24.161 16.791-49.428 26.039-71.145 26.039z"></path>
  <path fill="#378f5d" d="M163.503 101.023V288.86c-24-24.207-38.349-57.352-38.349-93.919s14.349-69.712 38.349-93.918z"></path>
  <path fill="#d9eac5" d="m276.615 172.115-162.672 93.919c32.939 8.638 68.842 4.535 100.51-13.748s53.173-47.327 62.162-80.171z"></path>
  <path fill="#6dcc96" d="m289.443 226.535-162.672 93.919c32.939 8.638 68.842 4.535 100.51-13.748 31.669-18.285 53.173-47.327 62.162-80.171zM185.503 60.218v187.838c24-24.207 38.349-57.352 38.349-93.919s-14.349-69.713-38.349-93.919z"></path>
  <path fill="#378f5d" d="M253.503 65.864v187.838c24-24.207 38.349-57.352 38.349-93.919s-14.349-69.712-38.349-93.919z"></path>
  <path fill="#5fa57d" d="M94.873 251.724c-20.194 20.242-20.684 51.917-1.651 72.887s50.608 23.542 72.706 5.397l-71.055-78.284z"></path>
  <path fill="#ffde76" d="M86.186 289.712c.194 9.904 4.007 20.255 10.234 27.953l28.682-26.034-38.916-1.919zm14.72 32.782a45.9 45.9 0 0 0 25.786 12.13l1.799-37.168-27.585 25.038zm-14.104-38.411 39.095 1.822-26.206-28.872c-7.747 7.807-11.781 17.137-12.889 27.05zm74.308 40.618-26.447-29.138-1.975 39.353c10.058-.091 19.9-3.262 28.422-10.215z"></path>
  <path fill="#5fa57d" d="M231.205 166.943c21.324 19.321 52.857 18.15 72.882-1.876 20.025-20.025 21.196-51.558 1.875-72.882l-74.757 74.758z"></path>
  <path fill="#ffde76" d="M269.951 173.425c9.883-.672 19.586-4.53 27.425-11.574l-27.39-27.39-.035 38.964zm31.604-15.78c6.537-7.619 10.166-16.342 10.869-26.342h-37.211l26.342 26.342zm-37.639 15.795-.071-39.137-27.571 27.571c7.898 7.086 17.687 10.939 27.642 11.566zm36.977-76.185-27.825 27.825 39.402.07c-.577-10.042-4.431-19.93-11.577-27.895z"></path>
  <circle cx="192.699" cy="189.446" r="19.107" fill="#ef5b62"></circle>
  <circle cx="179.243" cy="279.222" r="19.107" fill="#ef5b62"></circle>
  <path fill="#ef5b62" d="M262.654 206.5c-7.401 0-13.196 6.465-12.276 13.809.292 2.328.442 4.699.442 7.1 0 23.226-14.103 43.156-34.211 51.702.811.035 1.625.056 2.444.056 31.016 0 56.159-25.143 56.159-56.159 0-1.801-.085-3.581-.251-5.339-.598-6.337-5.941-11.169-12.307-11.169zm-45.536-86.363c.43 7.389-5.688 13.549-13.073 13.057a57.18 57.18 0 0 0-7.113-.029c-23.187 1.349-42.264 16.586-49.628 37.156a57.303 57.303 0 0 1-.198-2.437c-1.801-30.964 21.839-57.525 52.803-59.326a56.833 56.833 0 0 1 5.344-.06c6.361.23 11.495 5.284 11.865 11.639z"></path>
</svg>
